<?xml version="1.0" standalone="no"?>
<!DOCTYPE svg PUBLIC "-//W3C//DTD SVG 20010904//EN"
 "http://www.w3.org/TR/2001/REC-SVG-20010904/DTD/svg10.dtd">
<svg version="1.0" xmlns="http://www.w3.org/2000/svg"
 width="1024.000000pt" height="1024.000000pt" viewBox="0 0 1024.000000 1024.000000"
 preserveAspectRatio="xMidYMid meet">
<metadata>
Created by potrace 1.14, written by Peter Selinger 2001-2017
</metadata>
<g transform="translate(0.000000,1024.000000) scale(0.100000,-0.100000)"
fill="#000000" stroke="none">
<path d="M8375 9277 c-40 -127 -75 -160 -224 -208 -308 -99 -491 -126 -986
-149 -353 -16 -538 -30 -565 -43 -30 -15 -120 -188 -175 -340 -77 -211 -148
-315 -224 -332 -23 -5 -44 -1 -79 17 -39 19 -49 29 -56 61 -13 52 10 144 72
288 56 131 86 218 79 226 -6 6 -339 -103 -456 -149 -116 -46 -269 -117 -352
-164 l-76 -44 -21 -97 c-26 -123 -27 -131 -51 -343 -24 -208 -40 -269 -81
-304 -33 -27 -101 -42 -149 -31 -38 8 -78 55 -87 102 -11 58 3 219 31 348 14
66 28 135 32 153 l6 34 -104 -68 c-238 -153 -372 -260 -549 -435 -134 -134
-184 -208 -308 -458 l-97 -194 0 -77 c0 -72 3 -82 58 -196 68 -139 170 -326
267 -490 83 -140 90 -166 60 -230 -52 -107 -176 -112 -253 -11 -62 81 -274
482 -377 710 -29 64 -55 117 -59 117 -25 -1 -266 -464 -359 -690 -96 -234
-192 -552 -228 -760 -21 -117 -24 -384 -6 -490 30 -174 125 -398 260 -610 43
-69 116 -183 161 -255 90 -142 128 -185 166 -185 13 0 26 -3 28 -7 16 -25
-275 -893 -421 -1258 -33 -82 -78 -206 -100 -275 -42 -132 -89 -346 -79 -356
8 -9 148 109 223 187 131 138 261 450 500 1194 100 315 181 515 206 515 6 0
38 -26 72 -58 147 -137 291 -226 417 -258 87 -21 371 -30 481 -15 258 38 511
127 746 262 233 136 440 335 611 591 67 100 159 283 148 295 -3 3 -34 -6 -69
-20 -211 -85 -366 -89 -426 -12 -37 47 -30 88 26 144 52 52 91 69 322 141 177
55 238 84 336 158 102 77 193 173 281 298 94 133 203 328 190 340 -2 2 -57
-10 -123 -26 -209 -51 -637 -109 -706 -96 -47 9 -98 64 -98 108 0 63 59 123
145 147 46 13 310 43 575 66 102 8 200 18 218 22 47 8 95 60 143 154 33 67 37
80 21 75 -59 -19 -294 -66 -330 -66 -81 0 -132 44 -132 116 0 55 33 103 90
131 25 12 97 31 160 43 304 56 437 138 585 360 86 129 163 290 140 290 -3 0
-77 -18 -163 -39 -86 -22 -206 -47 -266 -56 -163 -25 -227 -11 -260 60 -22 47
-20 79 9 113 44 52 130 79 529 163 59 12 122 32 139 43 63 43 191 270 287 511
103 257 215 664 254 925 16 102 47 432 41 438 -2 2 -10 -21 -20 -51z"/>
<path d="M1835 3240 c-74 -9 -121 -28 -159 -66 -42 -43 -56 -84 -72 -217 -16
-137 -21 -149 -154 -393 -52 -93 -126 -227 -165 -299 -39 -71 -132 -236 -207
-366 -225 -390 -248 -444 -248 -588 0 -251 162 -444 405 -481 49 -7 1215 -10
3900 -8 3639 3 3833 4 3889 21 180 54 304 182 352 362 8 28 14 90 14 138 0
129 -23 189 -167 437 -27 47 -103 182 -167 300 -123 224 -142 258 -323 580
-77 136 -120 225 -143 295 -18 55 -41 116 -51 135 -25 50 -86 105 -144 131
l-50 22 -2141 5 -2141 4 -47 -20 c-68 -30 -94 -98 -61 -161 31 -62 21 -61 702
-61 340 0 1302 -3 2139 -7 l1521 -6 21 -64 c11 -34 17 -65 13 -67 -4 -3 -747
-8 -1652 -11 -1565 -5 -1645 -6 -1669 -23 -35 -26 -60 -79 -60 -129 0 -33 7
-50 29 -75 l29 -33 759 -6 c417 -4 1188 -4 1713 -1 927 5 955 4 971 -14 54
-62 315 -506 485 -824 131 -247 156 -313 162 -427 4 -80 1 -98 -18 -138 -26
-54 -69 -89 -128 -105 -58 -15 -7620 -15 -7702 0 -77 15 -123 48 -155 113 -32
67 -36 159 -9 228 30 76 620 1110 661 1159 3 3 253 5 556 5 l552 0 51 23 c129
58 155 168 54 227 -34 19 -53 20 -582 23 -302 2 -548 6 -548 11 0 23 44 131
53 131 7 0 284 0 617 0 675 0 649 -3 697 69 35 52 31 105 -11 147 l-34 34
-639 -1 c-351 -1 -665 -5 -698 -9z"/>
<path d="M3842 2850 c-57 -9 -101 -40 -128 -92 -25 -48 -18 -85 25 -131 l40
-42 453 0 453 0 37 23 c76 47 86 158 19 215 -27 22 -39 24 -187 30 -207 9
-644 7 -712 -3z"/>
<path d="M3900 2391 c-139 -5 -159 -8 -192 -29 -83 -52 -104 -153 -48 -231 62
-85 34 -81 560 -81 444 0 466 1 497 20 38 23 78 82 88 127 15 72 -29 144 -110
180 -35 15 -75 18 -340 18 -165 1 -370 -1 -455 -4z"/>
<path d="M6442 2391 l-233 -6 -39 -41 c-88 -95 -70 -236 36 -280 32 -13 226
-16 1281 -14 l362 0 -30 82 c-37 102 -81 185 -119 226 l-29 32 -373 0 c-205 0
-429 2 -498 4 -69 2 -230 1 -358 -3z"/>
<path d="M1900 2381 c-74 -11 -163 -80 -204 -160 -25 -47 -21 -114 8 -148 l24
-28 308 0 308 0 78 165 c76 161 78 165 56 172 -29 8 -518 7 -578 -1z"/>
<path d="M5060 2368 c-60 -31 -90 -77 -90 -141 0 -61 31 -120 80 -150 34 -21
47 -22 395 -28 198 -4 379 -4 403 -1 105 12 171 190 105 281 -41 55 -46 56
-463 59 -383 3 -385 2 -430 -20z"/>
<path d="M7850 2370 c0 -37 92 -229 130 -272 l38 -43 274 0 c343 0 338 -2 275
130 -19 39 -60 101 -91 138 l-57 67 -285 0 c-276 0 -284 -1 -284 -20z"/>
<path d="M2780 2369 c-98 -17 -161 -76 -244 -231 l-47 -87 43 -6 c24 -3 95 -5
158 -3 l115 3 37 150 c20 83 37 158 37 168 1 19 -12 20 -99 6z"/>
<path d="M1514 1846 c-44 -19 -77 -80 -76 -139 1 -59 29 -107 80 -139 36 -22
46 -23 300 -26 145 -2 274 -1 286 2 24 6 80 113 130 249 l25 67 -357 0 c-276
-1 -364 -4 -388 -14z"/>
<path d="M3775 1851 c-92 -8 -118 -20 -145 -64 -51 -82 9 -215 107 -238 21 -5
243 -9 494 -9 l456 0 33 23 c47 31 74 81 74 136 -1 59 -24 103 -71 133 l-38
23 -415 1 c-228 1 -451 -2 -495 -5z"/>
<path d="M7018 1850 l-838 -5 -32 -33 c-31 -30 -33 -37 -33 -100 0 -77 25
-140 65 -159 19 -10 233 -13 952 -13 1035 0 967 -5 953 68 -13 69 -59 174 -90
208 -27 28 -40 34 -73 34 -22 0 -46 1 -54 3 -7 1 -390 0 -850 -3z"/>
<path d="M5021 1834 c-54 -38 -67 -140 -26 -209 48 -83 28 -80 483 -80 l404 0
28 32 c49 54 65 155 34 214 -29 57 -43 59 -491 59 -362 0 -411 -2 -432 -16z"/>
<path d="M8128 1843 c-10 -2 -18 -6 -18 -9 0 -13 69 -157 97 -202 56 -89 65
-92 305 -92 l207 0 36 31 c46 40 65 78 65 126 0 58 -28 105 -80 131 -43 21
-53 22 -320 21 -151 -1 -283 -3 -292 -6z"/>
<path d="M2374 1815 c-17 -26 -77 -180 -88 -227 -5 -23 -3 -28 17 -33 12 -3
256 -7 542 -8 487 -2 522 -1 547 16 74 50 78 211 7 261 -21 14 -77 16 -516 16
l-493 0 -16 -25z"/>
<path d="M1280 1400 c-44 -44 -36 -147 13 -184 l28 -21 3804 0 3803 0 25 23
c14 13 28 38 31 55 8 45 -9 109 -34 129 -19 16 -272 17 -3836 17 -3727 0
-3816 -1 -3834 -19z"/>
</g>
</svg>
